{
	"patcher" : 	{
		"fileversion" : 1,
		"rect" : [ 25.0, 69.0, 640.0, 480.0 ],
		"bglocked" : 0,
		"defrect" : [ 25.0, 69.0, 640.0, 480.0 ],
		"openrect" : [ 0.0, 0.0, 0.0, 0.0 ],
		"openinpresentation" : 0,
		"default_fontsize" : 12.0,
		"default_fontface" : 0,
		"default_fontname" : "Arial",
		"gridonopen" : 0,
		"gridsize" : [ 15.0, 15.0 ],
		"gridsnaponopen" : 0,
		"toolbarvisible" : 1,
		"boxanimatetime" : 200,
		"imprint" : 0,
		"enablehscroll" : 1,
		"enablevscroll" : 1,
		"devicewidth" : 0.0,
		"boxes" : [ 			{
				"box" : 				{
					"maxclass" : "message",
					"text" : "store 2",
					"outlettype" : [ "" ],
					"fontsize" : 12.0,
					"presentation_rect" : [ 396.0, 225.0, 47.0, 18.0 ],
					"numinlets" : 2,
					"patching_rect" : [ 396.0, 225.0, 47.0, 18.0 ],
					"presentation" : 1,
					"numoutlets" : 1,
					"id" : "obj-13",
					"fontname" : "Arial"
				}

			}
, 			{
				"box" : 				{
					"maxclass" : "message",
					"text" : "2",
					"outlettype" : [ "" ],
					"fontsize" : 12.0,
					"numinlets" : 2,
					"patching_rect" : [ 473.0, 376.0, 32.5, 18.0 ],
					"numoutlets" : 1,
					"id" : "obj-12",
					"fontname" : "Arial"
				}

			}
, 			{
				"box" : 				{
					"maxclass" : "message",
					"text" : "1",
					"outlettype" : [ "" ],
					"fontsize" : 12.0,
					"numinlets" : 2,
					"patching_rect" : [ 479.0, 338.0, 32.5, 18.0 ],
					"numoutlets" : 1,
					"id" : "obj-11",
					"fontname" : "Arial"
				}

			}
, 			{
				"box" : 				{
					"maxclass" : "message",
					"text" : "storagewindow",
					"outlettype" : [ "" ],
					"fontsize" : 12.0,
					"presentation_rect" : [ 376.0, 125.0, 91.0, 18.0 ],
					"numinlets" : 2,
					"patching_rect" : [ 376.0, 125.0, 91.0, 18.0 ],
					"presentation" : 1,
					"numoutlets" : 1,
					"id" : "obj-10",
					"fontname" : "Arial"
				}

			}
, 			{
				"box" : 				{
					"maxclass" : "message",
					"text" : "store 1",
					"outlettype" : [ "" ],
					"fontsize" : 12.0,
					"presentation_rect" : [ 298.0, 210.0, 47.0, 18.0 ],
					"numinlets" : 2,
					"patching_rect" : [ 298.0, 210.0, 47.0, 18.0 ],
					"presentation" : 1,
					"numoutlets" : 1,
					"id" : "obj-9",
					"fontname" : "Arial"
				}

			}
, 			{
				"box" : 				{
					"maxclass" : "message",
					"text" : "read",
					"outlettype" : [ "" ],
					"fontsize" : 12.0,
					"numinlets" : 2,
					"patching_rect" : [ 499.0, 249.0, 35.0, 18.0 ],
					"numoutlets" : 1,
					"id" : "obj-8",
					"fontname" : "Arial"
				}

			}
, 			{
				"box" : 				{
					"maxclass" : "message",
					"text" : "write",
					"outlettype" : [ "" ],
					"fontsize" : 12.0,
					"presentation_rect" : [ 378.0, 331.0, 36.0, 18.0 ],
					"numinlets" : 2,
					"patching_rect" : [ 378.0, 331.0, 36.0, 18.0 ],
					"presentation" : 1,
					"numoutlets" : 1,
					"id" : "obj-7",
					"fontname" : "Arial"
				}

			}
, 			{
				"box" : 				{
					"maxclass" : "newobj",
					"varname" : "u196000955",
					"text" : "pattrstorage",
					"outlettype" : [ "" ],
					"fontsize" : 12.0,
					"presentation_rect" : [ 291.0, 289.0, 75.0, 20.0 ],
					"numinlets" : 1,
					"patching_rect" : [ 291.0, 289.0, 75.0, 20.0 ],
					"presentation" : 1,
					"numoutlets" : 1,
					"id" : "obj-6",
					"fontname" : "Arial",
					"autorestore" : "u196000955.json",
					"saved_object_attributes" : 					{
						"parameter_enable" : 0,
						"paraminitmode" : 0,
						"storage_rect" : [ 6, 904, 645, 1022 ],
						"client_rect" : [ 2, 795, 643, 895 ]
					}

				}

			}
, 			{
				"box" : 				{
					"maxclass" : "message",
					"text" : "clientwindow",
					"outlettype" : [ "" ],
					"fontsize" : 12.0,
					"presentation_rect" : [ 429.0, 169.0, 79.0, 18.0 ],
					"numinlets" : 2,
					"patching_rect" : [ 429.0, 169.0, 79.0, 18.0 ],
					"presentation" : 1,
					"numoutlets" : 1,
					"id" : "obj-5",
					"fontname" : "Arial"
				}

			}
, 			{
				"box" : 				{
					"maxclass" : "newobj",
					"varname" : "u713000952",
					"text" : "autopattr",
					"outlettype" : [ "", "", "", "" ],
					"fontsize" : 12.0,
					"numinlets" : 1,
					"patching_rect" : [ 243.0, 149.0, 59.5, 20.0 ],
					"numoutlets" : 4,
					"id" : "obj-4",
					"fontname" : "Arial",
					"restore" : 					{
						"slidey" : [ 85 ]
					}

				}

			}
, 			{
				"box" : 				{
					"maxclass" : "slider",
					"varname" : "slidey",
					"outlettype" : [ "" ],
					"numinlets" : 1,
					"patching_rect" : [ 117.0, 141.0, 20.0, 140.0 ],
					"numoutlets" : 1,
					"id" : "obj-3"
				}

			}
 ],
		"lines" : [ 			{
				"patchline" : 				{
					"source" : [ "obj-13", 0 ],
					"destination" : [ "obj-6", 0 ],
					"hidden" : 0,
					"midpoints" : [  ]
				}

			}
, 			{
				"patchline" : 				{
					"source" : [ "obj-12", 0 ],
					"destination" : [ "obj-6", 0 ],
					"hidden" : 0,
					"midpoints" : [  ]
				}

			}
, 			{
				"patchline" : 				{
					"source" : [ "obj-11", 0 ],
					"destination" : [ "obj-6", 0 ],
					"hidden" : 0,
					"midpoints" : [  ]
				}

			}
, 			{
				"patchline" : 				{
					"source" : [ "obj-10", 0 ],
					"destination" : [ "obj-6", 0 ],
					"hidden" : 0,
					"midpoints" : [  ]
				}

			}
, 			{
				"patchline" : 				{
					"source" : [ "obj-9", 0 ],
					"destination" : [ "obj-6", 0 ],
					"hidden" : 0,
					"midpoints" : [  ]
				}

			}
, 			{
				"patchline" : 				{
					"source" : [ "obj-7", 0 ],
					"destination" : [ "obj-6", 0 ],
					"hidden" : 0,
					"midpoints" : [  ]
				}

			}
, 			{
				"patchline" : 				{
					"source" : [ "obj-8", 0 ],
					"destination" : [ "obj-6", 0 ],
					"hidden" : 0,
					"midpoints" : [  ]
				}

			}
, 			{
				"patchline" : 				{
					"source" : [ "obj-5", 0 ],
					"destination" : [ "obj-6", 0 ],
					"hidden" : 0,
					"midpoints" : [  ]
				}

			}
 ]
	}

}
